<?xml version="1.0" encoding="UTF-8"?>
<!--
  Lucide icon sprite (https://lucide.dev) — ISC licensed.
  Pinned subset used by the ITK design system. Each symbol keeps Lucide's
  24x24 viewBox; stroke width / color come from the consuming .icon class
  (currentColor). Add new icons by copying the inner SVG from lucide.dev
  into a new <symbol id="lucide-NAME">.

  Render via the {{ icon('name') }} helper in templates/components/_icon.html.twig.
-->
<svg xmlns="http://www.w3.org/2000/svg" style="display: none">
  <symbol id="lucide-chevron-down" viewBox="0 0 24 24"><path d="m6 9 6 6 6-6"/></symbol>
  <symbol id="lucide-chevron-up" viewBox="0 0 24 24"><path d="m18 15-6-6-6 6"/></symbol>
  <symbol id="lucide-chevron-left" viewBox="0 0 24 24"><path d="m15 18-6-6 6-6"/></symbol>
  <symbol id="lucide-chevron-right" viewBox="0 0 24 24"><path d="m9 18 6-6-6-6"/></symbol>
  <symbol id="lucide-menu" viewBox="0 0 24 24"><line x1="4" x2="20" y1="6" y2="6"/><line x1="4" x2="20" y1="12" y2="12"/><line x1="4" x2="20" y1="18" y2="18"/></symbol>
  <symbol id="lucide-send" viewBox="0 0 24 24"><path d="M14.536 21.686a.5.5 0 0 0 .937-.024l6.5-19a.496.496 0 0 0-.635-.635l-19 6.5a.5.5 0 0 0-.024.937l7.93 3.18a2 2 0 0 1 1.112 1.11z"/><path d="m21.854 2.147-10.94 10.939"/></symbol>
  <symbol id="lucide-user" viewBox="0 0 24 24"><path d="M19 21v-2a4 4 0 0 0-4-4H9a4 4 0 0 0-4 4v2"/><circle cx="12" cy="7" r="4"/></symbol>
  <symbol id="lucide-users" viewBox="0 0 24 24"><path d="M16 21v-2a4 4 0 0 0-4-4H6a4 4 0 0 0-4 4v2"/><circle cx="9" cy="7" r="4"/><path d="M22 21v-2a4 4 0 0 0-3-3.87"/><path d="M16 3.13a4 4 0 0 1 0 7.75"/></symbol>
  <symbol id="lucide-more-vertical" viewBox="0 0 24 24"><circle cx="12" cy="12" r="1"/><circle cx="12" cy="5" r="1"/><circle cx="12" cy="19" r="1"/></symbol>
  <symbol id="lucide-check" viewBox="0 0 24 24"><path d="M20 6 9 17l-5-5"/></symbol>
  <symbol id="lucide-x" viewBox="0 0 24 24"><path d="M18 6 6 18"/><path d="m6 6 12 12"/></symbol>
  <symbol id="lucide-info" viewBox="0 0 24 24"><circle cx="12" cy="12" r="10"/><path d="M12 16v-4"/><path d="M12 8h.01"/></symbol>
  <symbol id="lucide-help-circle" viewBox="0 0 24 24"><circle cx="12" cy="12" r="10"/><path d="M9.09 9a3 3 0 0 1 5.83 1c0 2-3 3-3 3"/><path d="M12 17h.01"/></symbol>
  <symbol id="lucide-plus" viewBox="0 0 24 24"><path d="M5 12h14"/><path d="M12 5v14"/></symbol>
  <symbol id="lucide-search" viewBox="0 0 24 24"><circle cx="11" cy="11" r="8"/><path d="m21 21-4.3-4.3"/></symbol>
</svg>
